<svg xmlns="http://www.w3.org/2000/svg" width="175" height="37.47" viewBox="0 0 175 37.47"><title>goon-travel_logo</title><path d="M53.65,7.53H5.94A6,6,0,0,0,0,13.47V39.06A6,6,0,0,0,5.94,45H53.65a6,6,0,0,0,5.94-5.94V13.47a6,6,0,0,0-5.94-5.94" transform="translate(0 -7.53)" fill="#8b5cf6"/><path d="M36.31,37.25a5.38,5.38,0,0,1-3.94-1.4A5.12,5.12,0,0,1,30.94,32a5,5,0,0,1,1.49-3.89,5.6,5.6,0,0,1,4-1.41,5.29,5.29,0,0,1,3.91,1.41,5,5,0,0,1,1.42,3.71,5.33,5.33,0,0,1-1.46,4,5.47,5.47,0,0,1-4,1.44m.08-8.14a2,2,0,0,0-1.7.76A3.28,3.28,0,0,0,34.08,32c0,1.92.78,2.89,2.33,2.89s2.22-1,2.22-3-.75-2.81-2.24-2.81" transform="translate(0 -7.53)" fill="#fff"/><path d="M53.46,37H50.38V31.44c0-1.55-.55-2.33-1.66-2.33a1.64,1.64,0,0,0-1.32.62,2.32,2.32,0,0,0-.52,1.56V37H43.79V27h3.09v1.58h0a3.55,3.55,0,0,1,3.22-1.83q3.31,0,3.32,4.13Z" transform="translate(0 -7.53)" fill="#fff"/><path d="M16.55,24.39a5.69,5.69,0,0,1-1.62,4.33,6.56,6.56,0,0,1-4.68,1.53A7.49,7.49,0,0,1,7,29.67v-2.6a6.15,6.15,0,0,0,3.13.9,3.35,3.35,0,0,0,2.42-.83,3,3,0,0,0,.86-2.25V24.1h0a3.45,3.45,0,0,1-3.12,1.69,3.73,3.73,0,0,1-3-1.36,5.46,5.46,0,0,1-1.13-3.62,6.09,6.09,0,0,1,1.26-4,4.07,4.07,0,0,1,3.29-1.5,3.06,3.06,0,0,1,2.74,1.41h0V15.52h3.1Zm-3.06-3.66v-.8a2.47,2.47,0,0,0-.56-1.62,1.84,1.84,0,0,0-1.46-.67,1.89,1.89,0,0,0-1.62.81,3.75,3.75,0,0,0-.59,2.26,3.21,3.21,0,0,0,.56,2,1.83,1.83,0,0,0,1.53.73,1.89,1.89,0,0,0,1.55-.74,3.06,3.06,0,0,0,.59-1.95" transform="translate(0 -7.53)" fill="#fff"/><path d="M23.9,25.78A5.34,5.34,0,0,1,20,24.38a5.09,5.09,0,0,1-1.44-3.81A5.1,5.1,0,0,1,20,16.68a5.59,5.59,0,0,1,4-1.4A5.33,5.33,0,0,1,28,16.68a5,5,0,0,1,1.41,3.71,5.29,5.29,0,0,1-1.46,3.95,5.46,5.46,0,0,1-4,1.44M24,17.64a2,2,0,0,0-1.7.76,3.28,3.28,0,0,0-.61,2.13c0,1.92.78,2.89,2.33,2.89s2.22-1,2.22-3-.74-2.81-2.24-2.81" transform="translate(0 -7.53)" fill="#fff"/><polygon points="25.71 29.52 38.2 7.88 34.57 7.88 22.08 29.52 25.71 29.52" fill="#fff"/><path d="M81.59,39.38a9.38,9.38,0,0,1-4.26.75q-6.73,0-6.74-7V23.64H67.24v-4.7h3.35V14.47L77,12.65v6.29h4.64v4.7H77V32c0,2.15.85,3.23,2.56,3.23a4.37,4.37,0,0,0,2.08-.59Z" transform="translate(0 -7.53)" fill="#8b5cf6"/><path d="M98.66,24.69A5.61,5.61,0,0,0,96,24.07a3.87,3.87,0,0,0-3.25,1.52,6.66,6.66,0,0,0-1.17,4.15v9.88H85.18V18.94h6.38v3.83h.08c1-2.8,2.82-4.2,5.45-4.2a3.93,3.93,0,0,1,1.57.25Z" transform="translate(0 -7.53)" fill="#8b5cf6"/><path d="M118.82,39.62h-6v-3h-.09a6.71,6.71,0,0,1-6.15,3.48,6.41,6.41,0,0,1-4.73-1.71,6.14,6.14,0,0,1-1.73-4.56q0-6,7.13-6.95l5.61-.74c0-2.26-1.23-3.4-3.68-3.4a12.52,12.52,0,0,0-7,2.21V20.17A15.7,15.7,0,0,1,105.77,19a19.14,19.14,0,0,1,4.21-.53q8.83,0,8.84,8.83Zm-6-8.4v-1.4l-3.76.49c-2.07.27-3.11,1.2-3.11,2.81a2.33,2.33,0,0,0,.76,1.78,2.9,2.9,0,0,0,2,.7,3.78,3.78,0,0,0,2.93-1.24A4.52,4.52,0,0,0,112.83,31.22Z" transform="translate(0 -7.53)" fill="#8b5cf6"/><path d="M143.54,18.94l-7.69,20.68h-7.26l-7.33-20.68h6.82l3.59,12.74a18.42,18.42,0,0,1,.71,3.68h.08a20,20,0,0,1,.75-3.56l3.67-12.86Z" transform="translate(0 -7.53)" fill="#8b5cf6"/><path d="M164.83,31.1H151.35q.32,4.5,5.67,4.5A11,11,0,0,0,163,34v4.61a15.75,15.75,0,0,1-7.44,1.54q-5,0-7.77-2.78C146,35.5,145,32.91,145,29.6a11.09,11.09,0,0,1,3-8.16,9.93,9.93,0,0,1,7.35-3,9,9,0,0,1,7,2.69,10.34,10.34,0,0,1,2.47,7.29Zm-5.91-3.92c0-3-1.2-4.45-3.6-4.45A3.43,3.43,0,0,0,152.67,24a5.7,5.7,0,0,0-1.36,3.17Z" transform="translate(0 -7.53)" fill="#8b5cf6"/><path d="M175,39.62h-6.38V9H175Z" transform="translate(0 -7.53)" fill="#8b5cf6"/></svg>